<svg xmlns="http://www.w3.org/2000/svg" width="114" height="34" viewBox="0 0 114 34">
  <g id="Group_6" data-name="Group 6" transform="translate(-136 -20)">
    <text id="dfood" transform="translate(165 47)" fill="#fcfcfc" font-size="28" font-family="Montserrat-SemiBold, Montserrat" font-weight="600"><tspan x="0" y="0">dfood</tspan></text>
    <g id="cutlery-cross-couple-of-fork-and-spoon" transform="translate(136 7.323)">
      <path id="Path_12" data-name="Path 12" d="M16.32,27.816c1.322.708,3.868.492,5.8-1.445,1.92-1.92,2.646-4.727.831-6.6h0l-.047-.047h0c-1.874-1.815-4.681-1.089-6.6.831-1.936,1.936-2.153,4.483-1.445,5.8-.182,1.082-1.667,2.257-3,3.019A4.8,4.8,0,0,1,9.4,25.371a3.085,3.085,0,0,0-.886-2.522c-.063-.063-.245-.217-.245-.217L3.254,18.724l-.457.457,5.445,5.108-.591.591L2.376,19.6l-.484.484,5.274,5.276-.5.5L1.393,20.588l-.441.437,5.243,5.243-.6.6L.5,21.478l-.5.5,4.164,5.247s.1.1.141.139a3.08,3.08,0,0,0,2.12.758l.016,0a4.945,4.945,0,0,1,3.978,2.265L2.683,38.129h0a.177.177,0,0,0-.019.015,1.221,1.221,0,0,0,0,1.726c.024.024.116.115.14.139a1.221,1.221,0,0,0,1.726,0,.165.165,0,0,0,.015-.019v0l7.516-7.516,7.478,7.476h0a.157.157,0,0,0,.014.019,1.2,1.2,0,0,0,1.7-1.7c-.007-.006-.014-.009-.02-.015h0s-6.07-6.069-7.754-7.754C14.247,29.259,15.323,27.984,16.32,27.816Zm-.645-3.626a6.3,6.3,0,0,1,.2-1.085c.057-.195.123-.4.2-.6a3.435,3.435,0,0,1,.322-.6,4.253,4.253,0,0,1,.9-.936,5.724,5.724,0,0,1,.922-.6,4.171,4.171,0,0,1,.717-.309,1.366,1.366,0,0,1,.291-.068s-.088.067-.22.19l-.553.516a13.53,13.53,0,0,0-1.509,1.591,3.054,3.054,0,0,0-.286.488c-.09.171-.171.347-.244.521-.152.347-.278.683-.386.973s-.188.536-.237.711a.541.541,0,0,0-.037.279.528.528,0,0,1-.089-.287A3.755,3.755,0,0,1,15.675,24.19Z" fill="#fcfcfc"/>
    </g>
  </g>
</svg>
